<svg width="134" height="33" viewBox="0 0 134 33" fill="none" xmlns="http://www.w3.org/2000/svg">
<path fill-rule="evenodd" clip-rule="evenodd" d="M61.0528 27.2502V6.43036H64.8774V27.2502H61.0528ZM58.3198 20.1784C58.3198 24.5211 55.128 27.6852 50.9 27.6852C46.6719 27.6852 43.4801 24.5211 43.4801 20.1784C43.4801 15.808 46.6719 12.6716 50.9 12.6716C55.128 12.6716 58.3198 15.804 58.3198 20.1784ZM54.4952 20.1784C54.4952 17.5047 52.7707 16.1521 50.9 16.1521C49.0292 16.1521 47.3047 17.5047 47.3047 20.1784C47.3047 22.8244 49.0292 24.2047 50.9 24.2047C52.7707 24.2047 54.4952 22.8521 54.4952 20.1784ZM72.8431 25.4703L69.5089 32.8308H73.5629L82.4501 13.1026H78.3644L74.8839 21.3847L71.1147 13.1026H66.8313L72.8431 25.4703ZM84.4909 27.2502V13.1027H88.1415V14.8271C88.9167 13.4467 90.7281 12.6992 92.2825 12.6992C94.2087 12.6992 95.763 13.5338 96.4829 15.0565C97.6061 13.3321 99.1012 12.6992 100.968 12.6992C103.586 12.6992 106.086 14.2813 106.086 18.0782V27.2541H102.376V18.8534C102.376 17.3307 101.628 16.1797 99.8724 16.1797C98.235 16.1797 97.2541 17.4454 97.2541 18.9681V27.2502H93.4572V18.8534C93.4572 17.3307 92.682 16.1797 90.9536 16.1797C89.2845 16.1797 88.3076 17.4177 88.3076 18.9681V27.2502H84.4909ZM115.926 27.6813C119.407 27.6813 121.926 25.7709 122.413 22.2469H119.173C118.715 23.5126 117.738 24.4025 115.954 24.4025C114.055 24.4025 112.473 23.0538 112.386 21.183H122.512C122.512 21.1698 122.515 21.1267 122.52 21.0614L122.52 21.0599L122.52 21.0593C122.537 20.8505 122.571 20.4183 122.571 20.0044C122.571 15.4599 119.953 12.6716 115.582 12.6716C111.955 12.6716 108.621 15.6023 108.621 20.1191C108.621 24.8929 112.042 27.6813 115.926 27.6813ZM115.638 15.7763C117.825 15.7763 118.742 17.1567 118.802 18.5647H112.473C112.56 17.2714 113.652 15.7763 115.638 15.7763ZM133.93 16.8996C133.499 16.8126 133.123 16.7849 132.779 16.7849C130.825 16.7849 129.128 17.7341 129.128 20.7835V27.2541H125.304V13.1027H129.014V15.2028C129.876 13.3321 131.834 12.988 133.04 12.988C133.356 12.988 133.645 13.0156 133.93 13.0473V16.8996ZM32.6193 27.2106V19.5377H36.2739C40.3002 19.5377 42.9739 16.8917 42.9739 13.1818C42.9739 9.49954 40.3002 6.82587 36.2739 6.82587H28.6523V27.2106H32.6193ZM38.9752 13.2094C38.9752 14.9616 37.7689 16.1125 35.7834 16.1125H32.647V10.2747H35.7834C37.7689 10.2747 38.9752 11.398 38.9752 13.2094Z" fill="white"/>
<path fill-rule="evenodd" clip-rule="evenodd" d="M18.7792 16.4239C16.9532 15.1382 16.9532 12.4318 18.7792 11.1505C19.7816 10.4488 20.4397 9.28522 20.4397 7.96907C20.4397 5.82486 18.7051 4.09032 16.5609 4.09032C15.7547 4.09032 15.0007 4.33874 14.3819 4.76148C11.9675 6.37835 8.68577 5.52851 7.35218 2.94849C6.71589 1.67591 5.39973 0.799927 3.87874 0.799927C1.73454 0.799927 0 2.53447 0 4.67867C0 6.82288 1.73454 8.55741 3.87874 8.55741C4.685 8.55741 5.43896 8.309 6.05781 7.88626C8.47222 6.26939 11.7539 7.11923 13.0875 9.69925C13.3795 10.2832 13.8109 10.7801 14.3383 11.1505C16.1556 12.4274 16.1643 15.1208 14.3601 16.4108C11.9457 18.0102 8.67706 17.1604 7.34782 14.5891C6.71589 13.3121 5.39973 12.4362 3.87874 12.4362C1.73454 12.4362 0 14.1707 0 16.3149C0 17.6311 0.653721 18.7947 1.66045 19.4963C3.48651 20.782 3.48651 23.4884 1.66045 24.7697C0.653721 25.4714 0 26.635 0 27.9511C0 30.0953 1.73454 31.8299 3.87874 31.8299C6.02295 31.8299 7.75749 30.0953 7.75749 27.9511C7.75749 26.635 7.10377 25.4714 6.09704 24.7697C4.27969 23.4928 4.27098 20.8038 6.07525 19.5138C8.48966 17.9143 11.7583 18.7642 13.0875 21.3355C13.7238 22.6081 15.0399 23.484 16.5609 23.484C18.7051 23.484 20.4397 21.7495 20.4397 19.6053C20.4397 18.2891 19.786 17.1255 18.7792 16.4239Z" fill="white"/>
</svg>
