<svg width="121" height="29" viewBox="0 0 121 29" fill="none" xmlns="http://www.w3.org/2000/svg">
<path fill-rule="evenodd" clip-rule="evenodd" d="M55.159 23.8967V5.08691H58.6144V23.8967H55.159ZM52.6899 17.5076C52.6899 21.4311 49.8063 24.2897 45.9864 24.2897C42.1666 24.2897 39.283 21.4311 39.283 17.5076C39.283 13.5592 42.1666 10.7256 45.9864 10.7256C49.8063 10.7256 52.6899 13.5556 52.6899 17.5076ZM49.2345 17.5076C49.2345 15.0921 47.6766 13.87 45.9864 13.87C44.2963 13.87 42.7383 15.0921 42.7383 17.5076C42.7383 19.8982 44.2963 21.1452 45.9864 21.1452C47.6766 21.1452 49.2345 19.9232 49.2345 17.5076ZM65.8111 22.2887L62.7988 28.9385H66.4614L74.4906 11.115H70.7994L67.6549 18.5975L64.2495 11.115H60.3797L65.8111 22.2887ZM76.3344 23.8967V11.115H79.6325V12.673C80.3329 11.4259 81.9694 10.7506 83.3737 10.7506C85.1139 10.7506 86.5182 11.5045 87.1685 12.8802C88.1834 11.3223 89.5341 10.7506 91.2206 10.7506C93.5862 10.7506 95.8445 12.1799 95.8445 15.6102V23.9002H92.4927V16.3106C92.4927 14.9349 91.8174 13.895 90.2308 13.895C88.7515 13.895 87.8653 15.0385 87.8653 16.4142V23.8967H84.435V16.3106C84.435 14.9349 83.7346 13.895 82.1731 13.895C80.6652 13.895 79.7826 15.0135 79.7826 16.4142V23.8967H76.3344ZM104.735 24.2862C107.879 24.2862 110.155 22.5603 110.595 19.3765H107.668C107.254 20.5199 106.371 21.3239 104.76 21.3239C103.045 21.3239 101.615 20.1054 101.537 18.4153H110.684C110.684 18.4032 110.687 18.3636 110.692 18.3035L110.692 18.3032C110.707 18.1145 110.738 17.7242 110.738 17.3504C110.738 13.2447 108.372 10.7256 104.424 10.7256C101.147 10.7256 98.1349 13.3734 98.1349 17.454C98.1349 21.767 101.226 24.2862 104.735 24.2862ZM104.474 13.5306C106.45 13.5306 107.279 14.7777 107.333 16.0497H101.615C101.694 14.8813 102.68 13.5306 104.474 13.5306ZM121 14.5454C120.611 14.4668 120.271 14.4418 119.96 14.4418C118.195 14.4418 116.662 15.2993 116.662 18.0543V23.9002H113.207V11.115H116.559V13.0124C117.338 11.3223 119.106 11.0114 120.196 11.0114C120.482 11.0114 120.743 11.0364 121 11.065V14.5454ZM29.4707 23.8609V16.9288H32.7724C36.41 16.9288 38.8256 14.5383 38.8256 11.1865C38.8256 7.85979 36.41 5.44425 32.7724 5.44425H25.8867V23.8609H29.4707ZM35.213 11.2115C35.213 12.7945 34.1231 13.8343 32.3293 13.8343H29.4957V8.56015H32.3293C34.1231 8.56015 35.213 9.57496 35.213 11.2115Z" fill="black"/>
<path fill-rule="evenodd" clip-rule="evenodd" d="M16.9662 14.1155C15.3164 12.954 15.3164 10.5089 16.9662 9.35128C17.8718 8.71737 18.4663 7.66608 18.4663 6.47699C18.4663 4.5398 16.8993 2.97272 14.9621 2.97272C14.2336 2.97272 13.5525 3.19715 12.9934 3.57908C10.8121 5.03985 7.84721 4.27206 6.64237 1.94113C6.06751 0.791414 4.87842 0 3.50427 0C1.56708 0 0 1.56708 0 3.50427C0 5.44146 1.56708 7.00854 3.50427 7.00854C4.23269 7.00854 4.91385 6.78411 5.47296 6.40218C7.65427 4.94142 10.6191 5.70921 11.824 8.04014C12.0878 8.56775 12.4776 9.01661 12.954 9.35128C14.5959 10.5049 14.6038 12.9382 12.9737 14.1037C10.7924 15.5487 7.83933 14.7809 6.63843 12.4579C6.06751 11.3042 4.87842 10.5128 3.50427 10.5128C1.56708 10.5128 0 12.0799 0 14.0171C0 15.2062 0.590607 16.2575 1.50014 16.8914C3.14991 18.0529 3.14991 20.498 1.50014 21.6556C0.590607 22.2895 0 23.3408 0 24.5299C0 26.4671 1.56708 28.0342 3.50427 28.0342C5.44146 28.0342 7.00854 26.4671 7.00854 24.5299C7.00854 23.3408 6.41793 22.2895 5.5084 21.6556C3.86651 20.502 3.85864 18.0726 5.48871 16.9071C7.67002 15.4621 10.6231 16.2299 11.824 18.5529C12.3988 19.7027 13.5879 20.4941 14.9621 20.4941C16.8993 20.4941 18.4663 18.927 18.4663 16.9898C18.4663 15.8007 17.8757 14.7494 16.9662 14.1155Z" fill="#020203"/>
</svg>
