<svg width="30" height="30" viewBox="0 0 30 30" fill="none" xmlns="http://www.w3.org/2000/svg">
<g clip-path="url(#clip0_5431_22445)">
<path d="M9.43721 27.1884C20.7552 27.1884 26.9474 17.8093 26.9474 9.67824C26.9474 9.41457 26.9415 9.14504 26.9298 8.88137C28.1344 8.01024 29.1739 6.93123 29.9995 5.69504C28.8777 6.19417 27.6866 6.52014 26.4669 6.66183C27.7511 5.89205 28.7127 4.68276 29.1733 3.25812C27.9652 3.97411 26.644 4.47918 25.2663 4.75168C24.3381 3.76537 23.1107 3.11231 21.7741 2.89348C20.4375 2.67465 19.066 2.90223 17.8717 3.54104C16.6774 4.17984 15.7268 5.1943 15.1668 6.42755C14.6069 7.66081 14.4688 9.04418 14.7739 10.3638C12.3276 10.241 9.93443 9.60555 7.74949 8.49854C5.56454 7.39153 3.63663 5.83771 2.09072 3.93781C1.30501 5.29247 1.06458 6.89547 1.4183 8.42103C1.77202 9.94659 2.69334 11.2802 3.99502 12.1509C3.0178 12.1199 2.06198 11.8568 1.20654 11.3833V11.4595C1.20567 12.8811 1.69713 14.2591 2.5974 15.3594C3.49766 16.4596 4.75117 17.2141 6.14482 17.4946C5.23958 17.7423 4.28949 17.7784 3.36807 17.6001C3.76133 18.8227 4.52648 19.892 5.55672 20.6588C6.58697 21.4256 7.83091 21.8517 9.11494 21.8775C6.93504 23.5898 4.24223 24.5186 1.47021 24.5142C0.978621 24.5134 0.48751 24.4833 -0.000488281 24.4239C2.81558 26.2306 6.09143 27.1901 9.43721 27.1884Z" fill="#909298"/>
</g>
<defs>
<clipPath id="clip0_5431_22445">
<rect width="30" height="30" fill="white"/>
</clipPath>
</defs>
</svg>
