<svg width="24" height="24" viewBox="0 0 24 24" fill="none" xmlns="http://www.w3.org/2000/svg">
<path d="M15.5781 5.21077V19.1055C15.5781 20.6602 16.6508 21.5265 17.7887 21.5265C18.8413 21.5265 19.9992 20.7897 19.9992 19.1055V5.31603C19.9992 3.89077 18.9465 3.00024 17.7887 3.00024C16.6308 3.00024 15.5781 3.98235 15.5781 5.21077Z" fill="#F9AB00"/>
<path d="M9.78906 12.2635V19.1056C9.78906 20.6603 10.8617 21.5267 11.9996 21.5267C13.0522 21.5267 14.2101 20.7898 14.2101 19.1056V12.3688C14.2101 10.9435 13.1575 10.053 11.9996 10.053C10.8417 10.053 9.78906 11.0351 9.78906 12.2635Z" fill="#E37400"/>
<path d="M6.21053 21.5268C7.43136 21.5268 8.42105 20.5371 8.42105 19.3162C8.42105 18.0954 7.43136 17.1057 6.21053 17.1057C4.98969 17.1057 4 18.0954 4 19.3162C4 20.5371 4.98969 21.5268 6.21053 21.5268Z" fill="#E37400"/>
</svg>
