<svg width="24" height="24" viewBox="0 0 24 24" fill="none" xmlns="http://www.w3.org/2000/svg">
<path d="M8.95786 6.01466C9.12711 5.57036 9.35984 5.16132 9.70541 4.82986C11.0877 3.48285 13.3726 3.82137 14.3106 5.51394C15.0158 6.79747 15.7634 8.05279 16.4898 9.32222L20.1288 15.6553C21.1373 17.4254 20.0442 19.661 18.0413 19.9643C16.8142 20.1476 15.6647 19.5834 15.03 18.4833L11.8282 12.926C11.807 12.8837 11.7788 12.8484 11.7506 12.8131C11.6378 12.7215 11.5884 12.5875 11.5179 12.4676L9.16238 8.38426C8.88733 7.90469 8.76039 7.38282 8.77449 6.83273C8.79565 6.55064 8.83091 6.26854 8.95786 6.01466" fill="#3B77DB"/>
<path d="M8.95715 6.01367C8.89367 6.26756 8.83726 6.52144 8.82315 6.78943C8.80199 7.38183 8.95009 7.93192 9.24629 8.44674L11.5665 12.4595C11.637 12.5794 11.6935 12.6993 11.764 12.8122L10.4875 15.0055L8.70326 18.0803C8.67505 18.0803 8.668 18.0662 8.66095 18.045C8.65389 17.9886 8.67505 17.9392 8.68916 17.8828C8.9783 16.825 8.73852 15.887 8.01213 15.083C7.56783 14.5964 7.00364 14.3214 6.35482 14.2297C5.50853 14.1098 4.76098 14.3284 4.09101 14.8574C3.97112 14.949 3.89354 15.083 3.75249 15.1536C3.72428 15.1536 3.71018 15.1394 3.70312 15.1183L4.71162 13.3622L8.90778 6.09125C8.92188 6.06304 8.94304 6.04188 8.95715 6.01367" fill="#E1A904"/>
<path d="M3.73329 15.1399L4.13528 14.7802C5.849 13.4262 8.42312 14.4065 8.7969 16.5504C8.88858 17.0652 8.83921 17.5589 8.68406 18.0525C8.67701 18.0949 8.66995 18.1301 8.65585 18.1724C8.59238 18.2853 8.53596 18.4052 8.46544 18.518C7.83777 19.5547 6.91391 20.0695 5.7009 19.9919C4.31159 19.8932 3.21847 18.8495 3.02805 17.4672C2.93637 16.7972 3.07037 16.1696 3.41593 15.5913C3.48646 15.4643 3.57109 15.3515 3.64866 15.2245C3.68392 15.1963 3.66982 15.1399 3.73329 15.1399" fill="#2F974B"/>
<path d="M3.73492 15.14C3.70671 15.1682 3.70671 15.2176 3.65735 15.2247C3.65029 15.1753 3.6785 15.1471 3.70671 15.1118L3.73492 15.14Z" fill="#FABC04"/>
<path d="M8.65622 18.1741C8.62801 18.1247 8.65622 18.0895 8.68443 18.0542L8.71264 18.0824L8.65622 18.1741" fill="#E1C025"/>
</svg>
