<svg width="24" height="24" viewBox="0 0 24 24" fill="none" xmlns="http://www.w3.org/2000/svg">
<path d="M20.0399 20.574C20.5709 20.574 21.0015 20.1549 21.0015 19.638V4.55153C21.0015 4.03451 20.5709 3.61553 20.0399 3.61553H4.53973C4.00853 3.61553 3.57812 4.03451 3.57812 4.55153V19.638C3.57812 20.1549 4.00853 20.574 4.53973 20.574H20.0399Z" fill="#3B5998"/>
<path d="M15.5993 20.574V14.0068H17.8641L18.2032 11.4474H15.5993V9.81339C15.5993 9.07239 15.8106 8.56744 16.9024 8.56744L18.2949 8.5668V6.27772C18.054 6.24658 17.2275 6.17688 16.2659 6.17688C14.2582 6.17688 12.8839 7.36959 12.8839 9.55999V11.4474H10.6133V14.0068H12.8839V20.574H15.5993Z" fill="white"/>
</svg>
