<svg width="16" height="19" viewBox="0 0 16 19" fill="none" xmlns="http://www.w3.org/2000/svg">
<path d="M11.248 2.18552V15.9231C11.248 17.4614 12.2895 18.3168 13.3948 18.3168C14.4171 18.3168 15.5416 17.5883 15.5416 15.9231V2.28959C15.5416 0.881363 14.5193 0 13.3948 0C12.2703 0 11.248 0.972427 11.248 2.18552Z" fill="#F8AB00"/>
<path d="M5.62305 9.15915V15.9239C5.62305 17.4622 6.66448 18.3175 7.7698 18.3175C8.79207 18.3175 9.91656 17.589 9.91656 15.9239V9.26323C9.91656 7.85499 8.8943 6.97363 7.7698 6.97363C6.64531 6.97363 5.62305 7.94606 5.62305 9.15915Z" fill="#E37300"/>
<path d="M4.29351 16.1318C4.29351 17.3384 3.33195 18.3173 2.14676 18.3173C0.961568 18.3173 0 17.3384 0 16.1318C0 14.9252 0.961568 13.9463 2.14676 13.9463C3.33195 13.9463 4.29351 14.9252 4.29351 16.1318Z" fill="#E37300"/>
</svg>
