<svg width="18" height="18" viewBox="0 0 18 18" fill="none" xmlns="http://www.w3.org/2000/svg">
<path fill-rule="evenodd" clip-rule="evenodd" d="M11.25 3C11.25 3.41421 10.9142 3.75 10.5 3.75C10.0858 3.75 9.75 3.41421 9.75 3C9.75 2.58579 10.0858 2.25 10.5 2.25C10.9142 2.25 11.25 2.58579 11.25 3ZM11.25 12C11.25 12.4142 10.9142 12.75 10.5 12.75C10.0858 12.75 9.75 12.4142 9.75 12C9.75 11.5858 10.0858 11.25 10.5 11.25C10.9142 11.25 11.25 11.5858 11.25 12ZM15 8.25C15.4142 8.25 15.75 7.91421 15.75 7.5C15.75 7.08579 15.4142 6.75 15 6.75C14.5858 6.75 14.25 7.08579 14.25 7.5C14.25 7.91421 14.5858 8.25 15 8.25ZM11.625 7.5C11.625 8.12132 11.1213 8.625 10.5 8.625C9.87868 8.625 9.375 8.12132 9.375 7.5C9.375 6.87868 9.87868 6.375 10.5 6.375C11.1213 6.375 11.625 6.87868 11.625 7.5ZM6 8.25C6.41421 8.25 6.75 7.91421 6.75 7.5C6.75 7.08579 6.41421 6.75 6 6.75C5.58579 6.75 5.25 7.08579 5.25 7.5C5.25 7.91421 5.58579 8.25 6 8.25ZM14.25 4.5C14.25 4.91421 13.9142 5.25 13.5 5.25C13.0858 5.25 12.75 4.91421 12.75 4.5C12.75 4.08579 13.0858 3.75 13.5 3.75C13.9142 3.75 14.25 4.08579 14.25 4.5ZM7.5 5.25C7.91421 5.25 8.25 4.91421 8.25 4.5C8.25 4.08579 7.91421 3.75 7.5 3.75C7.08579 3.75 6.75 4.08579 6.75 4.5C6.75 4.91421 7.08579 5.25 7.5 5.25ZM14.25 10.5C14.25 10.9142 13.9142 11.25 13.5 11.25C13.0858 11.25 12.75 10.9142 12.75 10.5C12.75 10.0858 13.0858 9.75 13.5 9.75C13.9142 9.75 14.25 10.0858 14.25 10.5ZM8.78033 10.2803C9.07322 9.98744 9.07322 9.51256 8.78033 9.21967C8.48744 8.92678 8.01256 8.92678 7.71967 9.21967L2.46967 14.4697C2.17678 14.7626 2.17678 15.2374 2.46967 15.5303C2.76256 15.8232 3.23744 15.8232 3.53033 15.5303L8.78033 10.2803Z" fill="black"/>
</svg>
