<svg width="18" height="18" viewBox="0 0 18 18" fill="none" xmlns="http://www.w3.org/2000/svg">
<path fill-rule="evenodd" clip-rule="evenodd" d="M7.27999 3.96967C7.57288 4.26256 7.57288 4.73744 7.27999 5.03033L4.37098 7.93934C3.78519 8.52513 3.78519 9.47487 4.37098 10.0607L7.27999 12.9697C7.57288 13.2626 7.57288 13.7374 7.27999 14.0303C6.9871 14.3232 6.51222 14.3232 6.21933 14.0303L3.31032 11.1213C2.13875 9.94975 2.13875 8.05025 3.31032 6.87868L6.21933 3.96967C6.51222 3.67678 6.9871 3.67678 7.27999 3.96967ZM10.7193 3.96967C10.4264 4.26256 10.4264 4.73744 10.7193 5.03033L13.6283 7.93934C14.2141 8.52513 14.2141 9.47487 13.6283 10.0607L10.7193 12.9697C10.4264 13.2626 10.4264 13.7374 10.7193 14.0303C11.0122 14.3232 11.487 14.3232 11.7799 14.0303L14.6889 11.1213C15.8605 9.94975 15.8605 8.05025 14.6889 6.87868L11.7799 3.96967C11.487 3.67678 11.0122 3.67678 10.7193 3.96967ZM9 7.875C8.37868 7.875 7.875 8.37868 7.875 9C7.875 9.62132 8.37868 10.125 9 10.125C9.62132 10.125 10.125 9.62132 10.125 9C10.125 8.37868 9.62132 7.875 9 7.875Z" fill="black"/>
</svg>
