<svg width="16" height="19" viewBox="0 0 16 19" fill="none" xmlns="http://www.w3.org/2000/svg">
<path d="M13.9678 3.54099C13.9615 3.50185 13.9424 3.46591 13.9135 3.43882C13.8845 3.41173 13.8474 3.39503 13.808 3.39134C13.7441 3.38112 12.3421 3.28408 12.3421 3.28408L11.2731 2.2151C11.1771 2.10784 10.9636 2.13951 10.8829 2.16198C10.8727 2.16198 10.6694 2.22582 10.338 2.33359C10.0152 1.40097 9.44416 0.544964 8.43902 0.544964H8.35322C8.06464 0.172121 7.71223 0 7.41345 0C5.0722 0.0102149 3.95571 2.93065 3.6033 4.42304L1.96687 4.9251C1.46481 5.08497 1.44592 5.09671 1.37952 5.57528L0 16.2156L10.3415 18.1513L15.9464 16.9429C15.9464 16.9327 13.9785 3.64314 13.9683 3.54201L13.9678 3.54099ZM9.7644 2.51337C9.50392 2.59918 9.20258 2.68498 8.88797 2.78151V2.58896C8.89818 2.10784 8.82514 1.62876 8.67447 1.17114C9.1985 1.25183 9.55091 1.84021 9.7644 2.51337ZM8.04319 1.29474C8.21429 1.79884 8.29857 2.33001 8.27712 2.86272V2.95874L6.46908 3.52056C6.82303 2.19926 7.47525 1.54602 8.04217 1.30035L8.04319 1.29474ZM7.34858 0.644559C7.45584 0.647113 7.55952 0.680311 7.64788 0.740579C6.89351 1.09197 6.09624 1.97862 5.75404 3.75397L4.32396 4.19219C4.72745 2.84484 5.66875 0.641495 7.34756 0.641495L7.34858 0.644559Z" fill="#95BF47"/>
<path d="M13.8086 3.38999C13.7448 3.37977 12.3428 3.28273 12.3428 3.28273L11.2738 2.21375C11.2345 2.17289 11.1809 2.15041 11.1242 2.1499L10.3438 18.1484L15.9487 16.94L13.969 3.54934C13.9557 3.46762 13.8914 3.40225 13.8091 3.38948L13.8086 3.38999Z" fill="#5E8E3E"/>
<path d="M8.43577 6.49236L7.74013 8.54555C7.31979 8.34125 6.85961 8.23246 6.39279 8.22378C5.30133 8.22378 5.24872 8.90817 5.24872 9.07978C5.24872 10.0144 7.69774 10.374 7.69774 12.5774C7.69774 14.3098 6.59607 15.4222 5.12002 15.4222C3.34467 15.4222 2.43555 14.3205 2.43555 14.3205L2.90747 12.7474C2.90747 12.7474 3.83703 13.5493 4.6297 13.5493C4.72445 13.553 4.81896 13.5375 4.90751 13.5036C4.99606 13.4697 5.0768 13.4181 5.14482 13.3521C5.21284 13.286 5.26672 13.2068 5.30319 13.1193C5.33967 13.0318 5.35798 12.9378 5.357 12.8429C5.357 11.6121 3.3462 11.5589 3.3462 9.54865C3.3462 7.85809 4.56484 6.21094 7.01437 6.21094C7.97712 6.22524 8.4373 6.49185 8.4373 6.49185L8.43577 6.49236Z" fill="white"/>
</svg>
