<svg width="18" height="18" viewBox="0 0 18 18" fill="none" xmlns="http://www.w3.org/2000/svg">
<path fill-rule="evenodd" clip-rule="evenodd" d="M13.875 3.75H4.125C3.91789 3.75 3.75 3.91789 3.75 4.125V7.125C3.75 7.33211 3.91789 7.5 4.125 7.5H13.875C14.0821 7.5 14.25 7.33211 14.25 7.125V4.125C14.25 3.91789 14.0821 3.75 13.875 3.75ZM4.125 2.25C3.08947 2.25 2.25 3.08947 2.25 4.125V7.125C2.25 8.16053 3.08947 9 4.125 9H13.875C14.9105 9 15.75 8.16053 15.75 7.125V4.125C15.75 3.08947 14.9105 2.25 13.875 2.25H4.125Z" fill="black"/>
<path fill-rule="evenodd" clip-rule="evenodd" d="M5.79 11.25H3.96C3.84402 11.25 3.75 11.344 3.75 11.46V14.04C3.75 14.156 3.84402 14.25 3.96 14.25H5.79C5.90598 14.25 6 14.156 6 14.04V11.46C6 11.344 5.90598 11.25 5.79 11.25ZM3.96 9.75C3.01559 9.75 2.25 10.5156 2.25 11.46V14.04C2.25 14.9844 3.01559 15.75 3.96 15.75H5.79C6.73441 15.75 7.5 14.9844 7.5 14.04V11.46C7.5 10.5156 6.73441 9.75 5.79 9.75H3.96Z" fill="black"/>
<path fill-rule="evenodd" clip-rule="evenodd" d="M14.04 11.25H9.96C9.84402 11.25 9.75 11.344 9.75 11.46V14.04C9.75 14.156 9.84402 14.25 9.96 14.25H14.04C14.156 14.25 14.25 14.156 14.25 14.04V11.46C14.25 11.344 14.156 11.25 14.04 11.25ZM9.96 9.75C9.01559 9.75 8.25 10.5156 8.25 11.46V14.04C8.25 14.9844 9.01559 15.75 9.96 15.75H14.04C14.9844 15.75 15.75 14.9844 15.75 14.04V11.46C15.75 10.5156 14.9844 9.75 14.04 9.75H9.96Z" fill="black"/>
</svg>
