<svg width="22" height="22" viewBox="0 0 22 22" fill="none" xmlns="http://www.w3.org/2000/svg">
<path d="M9.91528 2.01303C10.2582 1.67014 10.8141 1.67014 11.157 2.01303L15.5471 6.40317C15.89 6.74606 15.89 7.30199 15.5471 7.64489C15.2042 7.98778 14.6483 7.98778 14.3054 7.64489L11.4142 4.75363V10.5361C11.4142 11.0211 11.0211 11.4142 10.5361 11.4142C10.0512 11.4142 9.65811 11.0211 9.65811 10.5361V4.75363L6.76686 7.64489C6.42397 7.98778 5.86803 7.98778 5.52514 7.64489C5.18225 7.30199 5.18225 6.74606 5.52514 6.40317L9.91528 2.01303Z" fill="#60636C"/>
<path d="M19.3164 13.1702C19.3164 12.6853 18.9233 12.2922 18.4384 12.2922C17.9535 12.2922 17.5604 12.6853 17.5604 13.1702V15.8043C17.5604 16.7741 16.7741 17.5604 15.8043 17.5604H5.26797C4.29813 17.5604 3.51191 16.7741 3.51191 15.8043V13.1702C3.51191 12.6853 3.11881 12.2922 2.63389 12.2922C2.14897 12.2922 1.75586 12.6853 1.75586 13.1702V15.8043C1.75586 17.744 3.32829 19.3164 5.26797 19.3164H15.8043C17.744 19.3164 19.3164 17.744 19.3164 15.8043V13.1702Z" fill="#60636C"/>
<path d="M10.5361 13.1702C9.80875 13.1702 9.21909 13.7599 9.21909 14.4873C9.21909 15.2146 9.80875 15.8043 10.5361 15.8043C11.2635 15.8043 11.8532 15.2146 11.8532 14.4873C11.8532 13.7599 11.2635 13.1702 10.5361 13.1702Z" fill="#60636C"/>
</svg>
