<svg width="18" height="17" viewBox="0 0 18 17" fill="none" xmlns="http://www.w3.org/2000/svg">
<path d="M6.10102 2.101C6.2744 1.63766 6.5128 1.21109 6.86678 0.865425C8.28272 -0.53931 10.6234 -0.186288 11.5842 1.57882C12.3066 2.91737 13.0723 4.22649 13.8164 5.55032L17.5441 12.1548C18.5772 14.0008 17.4574 16.3322 15.4058 16.6485C14.1487 16.8397 12.9712 16.2513 12.321 15.104L9.04126 9.30854C9.01959 9.26441 8.99069 9.22764 8.96179 9.19087C8.84621 9.09526 8.79564 8.95552 8.72339 8.83049L6.31052 4.57216C6.02878 4.07204 5.89874 3.5278 5.91319 2.95414C5.93486 2.65995 5.97099 2.36577 6.10102 2.101Z" fill="#3B77DB"/>
<path d="M6.10466 2.09863C6.03965 2.3634 5.98185 2.62817 5.9674 2.90764C5.94573 3.52543 6.09744 4.09909 6.40086 4.63598L8.77761 8.82076C8.84985 8.94579 8.90764 9.07082 8.97988 9.1885L7.67231 11.4758L5.84459 14.6824C5.8157 14.6824 5.80847 14.6677 5.80125 14.6456C5.79402 14.5868 5.8157 14.5353 5.83015 14.4765C6.12634 13.3733 5.88071 12.3951 5.13662 11.5567C4.6815 11.0492 4.10357 10.7624 3.43894 10.6668C2.57204 10.5417 1.80628 10.7697 1.11999 11.3213C0.997175 11.4169 0.917709 11.5567 0.773226 11.6302C0.744329 11.6302 0.72988 11.6155 0.722656 11.5935L1.75571 9.76216L6.05409 2.17953C6.06854 2.15012 6.09022 2.12805 6.10466 2.09863Z" fill="#E1A904"/>
<path d="M0.751154 11.6158L1.16293 11.2407C2.91841 9.82861 5.55523 10.8509 5.93811 13.0867C6.03202 13.6236 5.98145 14.1384 5.82252 14.6533C5.8153 14.6974 5.80807 14.7342 5.79363 14.7783C5.72861 14.896 5.67081 15.021 5.59857 15.1387C4.95562 16.2198 4.00926 16.7567 2.7667 16.6758C1.34354 16.5728 0.223789 15.4843 0.0287367 14.0428C-0.0651775 13.3441 0.0720818 12.6896 0.426066 12.0865C0.498308 11.9541 0.584998 11.8364 0.664464 11.704C0.700585 11.6746 0.686136 11.6158 0.751154 11.6158Z" fill="#2F974B"/>
<path d="M0.75119 11.6176C0.72275 11.6464 0.72275 11.6967 0.67298 11.7039C0.66587 11.6536 0.69431 11.6248 0.72275 11.5889L0.75119 11.6176Z" fill="#FABC04"/>
<path d="M5.79303 14.7785C5.76459 14.7282 5.79303 14.6922 5.82147 14.6562L5.84991 14.685L5.79303 14.7785Z" fill="#E1C025"/>
</svg>
