<svg width="22" height="22" viewBox="0 0 22 22" fill="none" xmlns="http://www.w3.org/2000/svg">
<path d="M17.5945 18.064C18.0607 18.064 18.4388 17.696 18.4388 17.2422V3.99582C18.4388 3.54186 18.0607 3.17398 17.5945 3.17398H3.98494C3.51853 3.17398 3.14062 3.54186 3.14062 3.99582V17.2422C3.14062 17.696 3.51853 18.064 3.98494 18.064H17.5945Z" fill="#3B5998"/>
<path d="M13.6981 18.064V12.2978H15.6867L15.9844 10.0506H13.6981V8.61587C13.6981 7.96525 13.8837 7.52189 14.8424 7.52189L16.065 7.52134V5.51146C15.8535 5.48412 15.1277 5.42292 14.2834 5.42292C12.5207 5.42292 11.3139 6.47015 11.3139 8.39338V10.0506H9.32031V12.2978H11.3139V18.064H13.6981Z" fill="white"/>
</svg>
