<svg width="29" height="29" viewBox="0 0 29 29" fill="none" xmlns="http://www.w3.org/2000/svg">
<path fill-rule="evenodd" clip-rule="evenodd" d="M7 3.5C7 5.433 5.433 7 3.5 7C1.567 7 0 5.433 0 3.5C0 1.567 1.567 0 3.5 0C5.433 0 7 1.567 7 3.5ZM29 3.5C29 5.433 27.433 7 25.5 7C23.567 7 22 5.433 22 3.5C22 1.567 23.567 0 25.5 0C27.433 0 29 1.567 29 3.5ZM3.5 29C5.433 29 7 27.433 7 25.5C7 23.567 5.433 22 3.5 22C1.567 22 0 23.567 0 25.5C0 27.433 1.567 29 3.5 29ZM29 25.5C29 27.433 27.433 29 25.5 29C23.567 29 22 27.433 22 25.5C22 23.567 23.567 22 25.5 22C27.433 22 29 23.567 29 25.5ZM14.5 18C16.433 18 18 16.433 18 14.5C18 12.567 16.433 11 14.5 11C12.567 11 11 12.567 11 14.5C11 16.433 12.567 18 14.5 18Z" fill="white"/>
</svg>
