<svg width="18" height="18" viewBox="0 0 18 18" fill="none" xmlns="http://www.w3.org/2000/svg">
<path fill-rule="evenodd" clip-rule="evenodd" d="M8.25 6C8.25 6.82843 7.57843 7.5 6.75 7.5C5.92157 7.5 5.25 6.82843 5.25 6C5.25 5.17157 5.92157 4.5 6.75 4.5C7.57843 4.5 8.25 5.17157 8.25 6ZM9.75 6C9.75 7.65685 8.40685 9 6.75 9C5.09315 9 3.75 7.65685 3.75 6C3.75 4.34315 5.09315 3 6.75 3C8.40685 3 9.75 4.34315 9.75 6ZM3 15C3 12.9289 4.67893 11.25 6.75 11.25C8.82107 11.25 10.5 12.9289 10.5 15H12C12 12.1005 9.6495 9.75 6.75 9.75C3.85051 9.75 1.5 12.1005 1.5 15H3ZM10.5 9C10.5 8.58579 10.8358 8.25 11.25 8.25H12.75V6.75C12.75 6.33579 13.0858 6 13.5 6C13.9142 6 14.25 6.33579 14.25 6.75V8.25H15.75C16.1642 8.25 16.5 8.58579 16.5 9C16.5 9.41421 16.1642 9.75 15.75 9.75H14.25V11.25C14.25 11.6642 13.9142 12 13.5 12C13.0858 12 12.75 11.6642 12.75 11.25V9.75H11.25C10.8358 9.75 10.5 9.41421 10.5 9Z" fill="black"/>
</svg>
