<svg width="23" height="16" viewBox="0 0 23 16" fill="none" xmlns="http://www.w3.org/2000/svg">
<g clip-path="url(#clip0_651_16879)">
<mask id="mask0_651_16879" style="mask-type:luminance" maskUnits="userSpaceOnUse" x="0" y="0" width="23" height="16">
<path d="M0.0078125 0.0410156H22.1697V15.5217H0.0078125V0.0410156Z" fill="#00A1E0"/>
</mask>
<g mask="url(#mask0_651_16879)">
<path fill-rule="evenodd" clip-rule="evenodd" d="M9.20894 1.73395C9.92431 0.989248 10.92 0.528085 12.0199 0.528085C13.4865 0.528085 14.7576 1.34286 15.442 2.55688C16.0495 2.28529 16.7075 2.14508 17.373 2.14541C20.0129 2.14541 22.1557 4.30457 22.1557 6.96888C22.1557 9.6332 20.0129 11.7924 17.373 11.7924C17.0503 11.7924 16.7358 11.7599 16.4278 11.6987C15.829 12.766 14.6842 13.4912 13.3806 13.4912C12.8498 13.4922 12.3259 13.3718 11.8488 13.1392C11.2418 14.565 9.82817 15.5672 8.18232 15.5672C6.46314 15.5672 5.0047 14.4836 4.4425 12.9599C4.19228 13.0127 3.93723 13.0393 3.6815 13.0391C1.63642 13.0391 -0.0175781 11.3607 -0.0175781 9.2993C-0.0175781 7.91419 0.727126 6.70832 1.83196 6.0565C1.59757 5.51655 1.47692 4.9341 1.47753 4.34547C1.47753 1.96633 3.40855 0.043457 5.7877 0.043457C7.18096 0.043457 8.42757 0.707499 9.20975 1.73819" fill="#00A1E0"/>
</g>
<path fill-rule="evenodd" clip-rule="evenodd" d="M3.21402 8.09087C3.20009 8.12721 3.21899 8.13478 3.22347 8.14122C3.26511 8.17137 3.3074 8.1932 3.34977 8.21773C3.57627 8.3375 3.78974 8.37254 4.01299 8.37254C4.46764 8.37254 4.75036 8.13055 4.75036 7.74109V7.73343C4.75036 7.3733 4.43097 7.24212 4.13276 7.14842L4.09374 7.13579C3.86804 7.06262 3.67331 6.99891 3.67331 6.85062V6.84304C3.67331 6.71593 3.78738 6.62224 3.96337 6.62224C4.15892 6.62224 4.39194 6.68734 4.54105 6.76971C4.54105 6.76971 4.58521 6.79823 4.60126 6.75561C4.60998 6.73256 4.686 6.52911 4.69414 6.50629C4.70278 6.48242 4.68763 6.46441 4.67206 6.45513C4.50096 6.35083 4.26468 6.27995 4.02024 6.27995L3.97486 6.28011C3.55851 6.28011 3.26764 6.53188 3.26764 6.89201V6.89975C3.26764 7.27943 3.58866 7.40328 3.88849 7.48883L3.93673 7.50382C4.15509 7.57096 4.34412 7.6293 4.34412 7.78248V7.79013C4.34412 7.93109 4.22109 8.0362 4.02391 8.0362C3.94724 8.0362 3.70289 8.03489 3.43809 7.86754C3.40607 7.84888 3.38781 7.83544 3.36313 7.82036C3.35009 7.81246 3.3175 7.7982 3.30332 7.8409L3.2137 8.09022M9.87041 8.09022C9.85648 8.12656 9.87538 8.13413 9.88003 8.14057C9.9215 8.17072 9.96395 8.19255 10.0063 8.21708C10.2328 8.33685 10.4463 8.37188 10.6695 8.37188C11.1242 8.37188 11.4069 8.1299 11.4069 7.74043V7.73277C11.4069 7.37264 11.0883 7.24146 10.7893 7.14777L10.7503 7.13514C10.5246 7.06197 10.3299 6.99825 10.3299 6.84997V6.84239C10.3299 6.71528 10.4439 6.62158 10.6199 6.62158C10.8155 6.62158 11.0477 6.68668 11.1976 6.76906C11.1976 6.76906 11.2418 6.79758 11.2579 6.75496C11.2665 6.7319 11.3426 6.52846 11.35 6.50564C11.3587 6.48177 11.3434 6.46376 11.328 6.45447C11.1569 6.35018 10.9206 6.2793 10.6761 6.2793L10.6307 6.27946C10.2143 6.27946 9.92345 6.53123 9.92345 6.89136V6.8991C9.92345 7.27878 10.2445 7.40263 10.5443 7.48818L10.5925 7.50317C10.8116 7.57031 10.9999 7.62865 10.9999 7.78182V7.78948C10.9999 7.93044 10.8768 8.03555 10.6796 8.03555C10.6028 8.03555 10.3578 8.03424 10.0938 7.86689C10.0618 7.84823 10.0431 7.83535 10.0188 7.81971C10.0106 7.8145 9.97218 7.7995 9.95906 7.84024L9.86943 8.08956M14.4159 7.32694C14.4159 7.54692 14.3748 7.72047 14.2945 7.8435C14.2143 7.9649 14.0932 8.02438 13.9246 8.02438C13.7559 8.02438 13.6353 7.96539 13.5563 7.84432C13.4767 7.7221 13.4365 7.54774 13.4365 7.32775C13.4365 7.10776 13.4769 6.93503 13.5563 6.81363C13.6352 6.69304 13.7551 6.63519 13.9246 6.63519C14.094 6.63519 14.2146 6.69361 14.2945 6.81363C14.3753 6.93503 14.4159 7.10776 14.4159 7.32775M14.7956 6.91955C14.7582 6.79326 14.7002 6.68245 14.6228 6.58956C14.5454 6.49668 14.4477 6.42172 14.3311 6.36794C14.2154 6.31376 14.0786 6.28647 13.9238 6.28647C13.769 6.28647 13.6329 6.31392 13.5164 6.36794C13.4007 6.42205 13.3021 6.49668 13.2247 6.58956C13.1474 6.68245 13.0894 6.79326 13.0519 6.91955C13.0149 7.04502 12.9961 7.1819 12.9961 7.32775C12.9961 7.47359 13.0149 7.61048 13.0519 7.73595C13.0892 7.86224 13.1473 7.97305 13.2247 8.06594C13.3022 8.15882 13.4007 8.23297 13.5164 8.28593C13.6329 8.33872 13.7698 8.36561 13.9238 8.36561C14.0778 8.36561 14.2146 8.33872 14.3303 8.28593C14.446 8.23313 14.5446 8.15882 14.622 8.06594C14.6993 7.97305 14.7573 7.86224 14.7948 7.73595C14.8317 7.61048 14.8506 7.47359 14.8506 7.32775C14.8506 7.18272 14.8317 7.04502 14.7948 6.91955M17.9153 7.96246C17.9029 7.92555 17.8669 7.93948 17.8669 7.93948C17.8117 7.96059 17.7528 7.98014 17.6901 7.98992C17.6268 7.99986 17.5564 8.00483 17.4823 8.00483C17.299 8.00483 17.1523 7.95016 17.048 7.84187C16.9429 7.73351 16.8842 7.55915 16.8851 7.32286C16.8856 7.10776 16.9376 6.94643 17.0309 6.82259C17.123 6.70037 17.2647 6.63682 17.4521 6.63682C17.6086 6.63682 17.7284 6.65499 17.8538 6.69426C17.8538 6.69426 17.8836 6.70722 17.8978 6.66803C17.9312 6.57596 17.9558 6.50996 17.9915 6.40893C18.0016 6.38 17.9769 6.36778 17.9678 6.36428C17.9186 6.34505 17.8024 6.31352 17.7144 6.30024C17.6321 6.28769 17.5368 6.28117 17.4292 6.28117C17.2696 6.28117 17.1278 6.30847 17.0064 6.36257C16.885 6.41659 16.7823 6.4913 16.7008 6.58419C16.6194 6.67707 16.5574 6.78788 16.5159 6.91417C16.4747 7.03965 16.454 7.17734 16.454 7.32319C16.454 7.63769 16.5387 7.89271 16.7065 8.0793C16.8744 8.2667 17.127 8.36121 17.4561 8.36121C17.6509 8.36121 17.8505 8.32186 17.9939 8.26507C17.9939 8.26507 18.0213 8.25187 18.0094 8.21993L17.9157 7.96246M18.5797 7.11509C18.5979 6.99288 18.6314 6.89103 18.684 6.812C18.7628 6.69141 18.8828 6.62541 19.0515 6.62541C19.2201 6.62541 19.3317 6.69174 19.4116 6.812C19.4646 6.89144 19.4877 6.99695 19.4963 7.11509L18.5756 7.11493L18.5797 7.11509ZM19.8589 6.84622C19.8266 6.72482 19.7465 6.60178 19.6943 6.54557C19.6112 6.45675 19.5306 6.39402 19.4499 6.3598C19.3334 6.31028 19.2082 6.28486 19.0816 6.28508C18.9211 6.28508 18.7753 6.31221 18.6571 6.36737C18.539 6.42294 18.4396 6.49855 18.3614 6.59307C18.2832 6.68758 18.2245 6.7992 18.187 6.92712C18.1495 7.05341 18.1306 7.19193 18.1306 7.33696C18.1306 7.48525 18.1502 7.62294 18.1889 7.7476C18.2279 7.87308 18.2907 7.98307 18.3754 8.07433C18.4602 8.1664 18.5685 8.2381 18.6989 8.28861C18.8285 8.33872 18.9857 8.36471 19.1658 8.36414C19.5373 8.36292 19.7329 8.28022 19.8127 8.23541C19.827 8.22742 19.8404 8.21365 19.8236 8.17398L19.7397 7.93851C19.7268 7.90339 19.6913 7.9161 19.6913 7.9161C19.5992 7.95048 19.4689 8.01224 19.1633 8.01143C18.9637 8.0111 18.8162 7.95219 18.7234 7.85988C18.6288 7.76537 18.5816 7.62767 18.5743 7.43212L19.8616 7.4331C19.8616 7.4331 19.8955 7.43277 19.899 7.39969C19.9004 7.38601 19.9431 7.13571 19.8606 6.84646L19.8589 6.84622ZM8.2891 7.11509C8.30727 6.99288 8.34084 6.89103 8.39339 6.812C8.47226 6.69141 8.59219 6.62541 8.76085 6.62541C8.92951 6.62541 9.04113 6.69174 9.12098 6.812C9.17386 6.89144 9.197 6.99695 9.20572 7.11509L8.28502 7.11493L8.2891 7.11509ZM9.56829 6.84622C9.53603 6.72482 9.45585 6.60178 9.40371 6.54557C9.3206 6.45675 9.23994 6.39402 9.15928 6.3598C9.04282 6.31028 8.91754 6.28486 8.791 6.28508C8.63049 6.28508 8.48464 6.31221 8.3665 6.36737C8.24836 6.42294 8.14896 6.49855 8.07074 6.59307C7.99276 6.68758 7.93385 6.7992 7.89637 6.92712C7.85898 7.05341 7.84016 7.19193 7.84016 7.33696C7.84016 7.48525 7.85963 7.62294 7.89849 7.7476C7.93744 7.87308 8.00034 7.98307 8.08426 8.07433C8.169 8.1664 8.27736 8.2381 8.40773 8.28861C8.53728 8.33872 8.69371 8.36471 8.87459 8.36414C9.24613 8.36292 9.44168 8.28022 9.52153 8.23541C9.5357 8.22742 9.54923 8.21365 9.53236 8.17398L9.44844 7.93851C9.43549 7.90339 9.39996 7.9161 9.39996 7.9161C9.30789 7.95048 9.17753 8.01224 8.87199 8.01143C8.67318 8.0111 8.52489 7.95219 8.43201 7.85988C8.33749 7.76537 8.29024 7.62767 8.2829 7.43212L9.57025 7.4331C9.57025 7.4331 9.60414 7.43277 9.60765 7.39969C9.60903 7.38601 9.65173 7.13571 9.56919 6.84646L9.56829 6.84622ZM5.51071 7.95431C5.46028 7.91406 5.45327 7.9042 5.43657 7.87805C5.41107 7.8387 5.39803 7.78272 5.39803 7.71102C5.39803 7.59858 5.43551 7.5171 5.51291 7.46251C5.5121 7.46268 5.62372 7.36637 5.88608 7.36963C6.00286 7.37172 6.11936 7.38166 6.2348 7.39937V7.98356H6.23497C6.23497 7.98356 6.07201 8.01868 5.88787 8.02976C5.62633 8.04549 5.51063 7.95447 5.51145 7.95472L5.51071 7.95431ZM6.02239 7.04991C5.97025 7.04608 5.90262 7.04421 5.82196 7.04421C5.71196 7.04421 5.60523 7.0579 5.50582 7.08478C5.40561 7.11183 5.31517 7.15371 5.23776 7.20944C5.16015 7.26482 5.09631 7.3373 5.05118 7.42129C5.00563 7.50602 4.98241 7.60543 4.98241 7.71786C4.98241 7.83193 5.00221 7.93052 5.04132 8.01118C5.07964 8.09119 5.13734 8.16037 5.20916 8.21243C5.28062 8.26442 5.36886 8.30287 5.47071 8.32569C5.57174 8.34874 5.68581 8.3604 5.81128 8.3604C5.94328 8.3604 6.07446 8.34931 6.20156 8.32789C6.30982 8.30921 6.41766 8.28824 6.52503 8.26499C6.56788 8.25513 6.61547 8.24217 6.61547 8.24217C6.64724 8.23411 6.6448 8.20013 6.6448 8.20013L6.64407 7.02685C6.64407 6.76938 6.5753 6.57791 6.43956 6.45977C6.3043 6.34163 6.10631 6.28215 5.84966 6.28215C5.75352 6.28215 5.59789 6.29518 5.50501 6.31384C5.50501 6.31384 5.22473 6.36827 5.10903 6.45887C5.10903 6.45887 5.08361 6.47452 5.09746 6.50996L5.18871 6.75439C5.20004 6.78609 5.23092 6.77525 5.23092 6.77525C5.23092 6.77525 5.24061 6.77142 5.25202 6.76466C5.4989 6.63022 5.81177 6.63429 5.81177 6.63429C5.95028 6.63429 6.05783 6.6624 6.12953 6.7174C6.19969 6.77126 6.23546 6.85265 6.23546 7.02376V7.0781C6.12546 7.06213 6.02361 7.05293 6.02361 7.05293L6.02239 7.04991ZM16.37 6.3875C16.3719 6.3832 16.3729 6.37858 16.3729 6.3739C16.3729 6.36922 16.372 6.36458 16.3702 6.36026C16.3684 6.35595 16.3657 6.35203 16.3624 6.34876C16.3591 6.34549 16.3551 6.34293 16.3507 6.34122C16.3288 6.33291 16.2196 6.30985 16.1356 6.30464C15.9743 6.29453 15.8847 6.32175 15.804 6.35792C15.7243 6.39385 15.6362 6.45162 15.5873 6.51843L15.5871 6.362C15.5871 6.34049 15.5719 6.32313 15.5502 6.32313H15.221C15.1997 6.32313 15.1842 6.34049 15.1842 6.362V8.27672C15.1842 8.28706 15.1884 8.29698 15.1957 8.30429C15.203 8.31161 15.2129 8.31572 15.2232 8.31575H15.5606C15.5709 8.31572 15.5808 8.3116 15.5881 8.30429C15.5954 8.29697 15.5995 8.28706 15.5995 8.27672V7.31528C15.5995 7.18655 15.6137 7.05863 15.642 6.97797C15.6698 6.8982 15.7077 6.83457 15.7544 6.78894C15.7989 6.74487 15.8534 6.71217 15.9133 6.69361C15.9694 6.67749 16.0276 6.66932 16.086 6.66933C16.1532 6.66933 16.227 6.6866 16.227 6.6866C16.2517 6.68937 16.2655 6.67422 16.2739 6.65189C16.296 6.59315 16.3586 6.41724 16.3709 6.3822" fill="#FFFFFE"/>
<path fill-rule="evenodd" clip-rule="evenodd" d="M13.2191 5.50418C13.1774 5.49158 13.135 5.48151 13.0921 5.47403C13.0344 5.4644 12.9759 5.45987 12.9174 5.46051C12.6849 5.46051 12.5017 5.52618 12.373 5.65589C12.2453 5.78463 12.1583 5.98074 12.1148 6.23878L12.099 6.32588H11.8073C11.8073 6.32588 11.7717 6.32441 11.7642 6.36328L11.7163 6.63053C11.7129 6.65611 11.7239 6.67208 11.7581 6.67192H12.0422L11.754 8.28053C11.7314 8.41008 11.7056 8.51665 11.677 8.59739C11.6488 8.67708 11.6212 8.7368 11.5874 8.78015C11.5545 8.82211 11.5234 8.85299 11.4697 8.87099C11.4254 8.8859 11.3744 8.89275 11.3185 8.89275C11.2874 8.89275 11.246 8.88753 11.2154 8.88142C11.1849 8.87539 11.169 8.86855 11.1461 8.85894C11.1461 8.85894 11.1127 8.84622 11.0996 8.87963C11.089 8.90693 11.0133 9.1151 11.0043 9.14085C10.9952 9.16627 11.008 9.18631 11.0241 9.1921C11.0619 9.20562 11.09 9.21426 11.1415 9.2264C11.213 9.24326 11.2733 9.24432 11.3298 9.24432C11.4481 9.24432 11.5559 9.2277 11.6453 9.19544C11.7352 9.16293 11.8135 9.1063 11.8828 9.02963C11.9577 8.94693 12.0048 8.86032 12.0498 8.74218C12.0944 8.62509 12.1324 8.47974 12.1627 8.31035L12.4523 6.67192H12.8757C12.8757 6.67192 12.9114 6.67322 12.9188 6.63452L12.9667 6.36727C12.97 6.34169 12.9591 6.32572 12.9247 6.32588H12.5138C12.5159 6.31659 12.5345 6.17205 12.5817 6.03598C12.6018 5.97789 12.6397 5.93104 12.6718 5.89886C12.7018 5.86821 12.7387 5.84523 12.7795 5.83188C12.8241 5.81808 12.8707 5.81137 12.9174 5.812C12.9561 5.812 12.9941 5.81665 13.023 5.82268C13.0628 5.83115 13.0783 5.83563 13.0887 5.83873C13.1306 5.85152 13.1362 5.83913 13.1445 5.81885L13.2427 5.54899C13.2528 5.51999 13.2282 5.50776 13.2191 5.50418ZM7.47706 8.28395C7.47706 8.30546 7.46174 8.32298 7.44023 8.32298H7.09941C7.07782 8.32298 7.0625 8.30546 7.0625 8.28395V5.54076C7.0625 5.51933 7.07782 5.50198 7.09941 5.50198H7.44023C7.46174 5.50198 7.47706 5.51933 7.47706 5.54076V8.28395Z" fill="#FFFFFE"/>
</g>
<defs>
<clipPath id="clip0_651_16879">
<rect width="22.2434" height="15.5622" fill="white"/>
</clipPath>
</defs>
</svg>
