<svg width="22" height="22" viewBox="0 0 22 22" fill="none" xmlns="http://www.w3.org/2000/svg">
<g clip-path="url(#clip0_651_16913)">
<mask id="mask0_651_16913" style="mask-type:alpha" maskUnits="userSpaceOnUse" x="4" y="1" width="13" height="18">
<path d="M12.0191 1.99658H5.71087C5.0986 1.99658 4.59766 2.49379 4.59766 3.10149V17.097C4.59766 17.7047 5.0986 18.2019 5.71087 18.2019H15.3587C15.971 18.2019 16.4719 17.7047 16.4719 17.097V6.41621L12.0191 1.99658Z" fill="white"/>
</mask>
<g mask="url(#mask0_651_16913)">
<path d="M12.0191 1.99658H5.71087C5.0986 1.99658 4.59766 2.49379 4.59766 3.10149V17.097C4.59766 17.7047 5.0986 18.2019 5.71087 18.2019H15.3587C15.971 18.2019 16.4719 17.7047 16.4719 17.097V6.41621L13.8744 4.5747L12.0191 1.99658Z" fill="#0F9D58"/>
</g>
<mask id="mask1_651_16913" style="mask-type:alpha" maskUnits="userSpaceOnUse" x="4" y="1" width="13" height="18">
<path d="M12.0191 1.99658H5.71087C5.0986 1.99658 4.59766 2.49379 4.59766 3.10149V17.097C4.59766 17.7047 5.0986 18.2019 5.71087 18.2019H15.3587C15.971 18.2019 16.4719 17.7047 16.4719 17.097V6.41621L12.0191 1.99658Z" fill="white"/>
</mask>
<g mask="url(#mask1_651_16913)">
<path d="M7.56641 9.91504V15.2554H13.5035V9.91504H7.56641ZM10.1639 14.5188H8.30855V13.5981H10.1639V14.5188ZM10.1639 13.0456H8.30855V12.1249H10.1639V13.0456ZM10.1639 11.5724H8.30855V10.6516H10.1639V11.5724ZM12.7614 14.5188H10.906V13.5981H12.7614V14.5188ZM12.7614 13.0456H10.906V12.1249H12.7614V13.0456ZM12.7614 11.5724H10.906V10.6516H12.7614V11.5724Z" fill="#F1F1F1"/>
</g>
<mask id="mask2_651_16913" style="mask-type:alpha" maskUnits="userSpaceOnUse" x="4" y="1" width="13" height="18">
<path d="M12.0191 1.99658H5.71087C5.0986 1.99658 4.59766 2.49379 4.59766 3.10149V17.097C4.59766 17.7047 5.0986 18.2019 5.71087 18.2019H15.3587C15.971 18.2019 16.4719 17.7047 16.4719 17.097V6.41621L12.0191 1.99658Z" fill="white"/>
</mask>
<g mask="url(#mask2_651_16913)">
<path d="M12.3457 6.09277L16.4729 10.1883V6.41596L12.3457 6.09277Z" fill="url(#paint0_linear_651_16913)"/>
</g>
<mask id="mask3_651_16913" style="mask-type:alpha" maskUnits="userSpaceOnUse" x="4" y="1" width="13" height="18">
<path d="M12.0191 1.99658H5.71087C5.0986 1.99658 4.59766 2.49379 4.59766 3.10149V17.097C4.59766 17.7047 5.0986 18.2019 5.71087 18.2019H15.3587C15.971 18.2019 16.4719 17.7047 16.4719 17.097V6.41621L12.0191 1.99658Z" fill="white"/>
</mask>
<g mask="url(#mask3_651_16913)">
<path d="M12.0195 1.99658V5.3113C12.0195 5.92176 12.5177 6.41621 13.1327 6.41621H16.4724L12.0195 1.99658Z" fill="#87CEAC"/>
</g>
<mask id="mask4_651_16913" style="mask-type:alpha" maskUnits="userSpaceOnUse" x="4" y="1" width="13" height="18">
<path d="M12.0191 1.99658H5.71087C5.0986 1.99658 4.59766 2.49379 4.59766 3.10149V17.097C4.59766 17.7047 5.0986 18.2019 5.71087 18.2019H15.3587C15.971 18.2019 16.4719 17.7047 16.4719 17.097V6.41621L12.0191 1.99658Z" fill="white"/>
</mask>
<g mask="url(#mask4_651_16913)">
<path d="M5.71087 1.99658C5.0986 1.99658 4.59766 2.49379 4.59766 3.10149V3.19356C4.59766 2.58587 5.0986 2.08866 5.71087 2.08866H12.0191V1.99658H5.71087Z" fill="white" fill-opacity="0.2"/>
</g>
<mask id="mask5_651_16913" style="mask-type:alpha" maskUnits="userSpaceOnUse" x="4" y="1" width="13" height="18">
<path d="M12.0191 1.99658H5.71087C5.0986 1.99658 4.59766 2.49379 4.59766 3.10149V17.097C4.59766 17.7047 5.0986 18.2019 5.71087 18.2019H15.3587C15.971 18.2019 16.4719 17.7047 16.4719 17.097V6.41621L12.0191 1.99658Z" fill="white"/>
</mask>
<g mask="url(#mask5_651_16913)">
<path d="M15.3587 18.1098H5.71087C5.0986 18.1098 4.59766 17.6126 4.59766 17.0049V17.097C4.59766 17.7047 5.0986 18.2019 5.71087 18.2019H15.3587C15.971 18.2019 16.4719 17.7047 16.4719 17.097V17.0049C16.4719 17.6126 15.971 18.1098 15.3587 18.1098Z" fill="#263238" fill-opacity="0.2"/>
</g>
<mask id="mask6_651_16913" style="mask-type:alpha" maskUnits="userSpaceOnUse" x="4" y="1" width="13" height="18">
<path d="M12.0191 1.99658H5.71087C5.0986 1.99658 4.59766 2.49379 4.59766 3.10149V17.097C4.59766 17.7047 5.0986 18.2019 5.71087 18.2019H15.3587C15.971 18.2019 16.4719 17.7047 16.4719 17.097V6.41621L12.0191 1.99658Z" fill="white"/>
</mask>
<g mask="url(#mask6_651_16913)">
<path d="M13.1327 6.41594C12.5177 6.41594 12.0195 5.9215 12.0195 5.31104V5.40311C12.0195 6.01357 12.5177 6.50802 13.1327 6.50802H16.4724V6.41594H13.1327Z" fill="#263238" fill-opacity="0.1"/>
</g>
<path d="M12.0191 1.99609H5.71087C5.0986 1.99609 4.59766 2.4933 4.59766 3.101V17.0965C4.59766 17.7042 5.0986 18.2014 5.71087 18.2014H15.3587C15.971 18.2014 16.4719 17.7042 16.4719 17.0965V6.41572L12.0191 1.99609Z" fill="url(#paint1_radial_651_16913)"/>
</g>
<defs>
<linearGradient id="paint0_linear_651_16913" x1="14.4095" y1="6.44442" x2="14.4095" y2="10.1889" gradientUnits="userSpaceOnUse">
<stop stop-color="#263238" stop-opacity="0.2"/>
<stop offset="1" stop-color="#263238" stop-opacity="0.02"/>
</linearGradient>
<radialGradient id="paint1_radial_651_16913" cx="0" cy="0" r="1" gradientUnits="userSpaceOnUse" gradientTransform="translate(4.97384 2.31821) scale(19.1471 19.0042)">
<stop stop-color="white" stop-opacity="0.1"/>
<stop offset="1" stop-color="white" stop-opacity="0"/>
</radialGradient>
<clipPath id="clip0_651_16913">
<rect width="12.2924" height="16.6825" fill="white" transform="translate(4.39062 1.75586)"/>
</clipPath>
</defs>
</svg>
